# xmcd
#
# Track frame offsets: 
#        150
#        11566
#        21661
#        41530
#        53660
#        70854
#        84851
#        96535
#        108222
#        128983
#        139486
#        156645
#        170596
#        186543
#
# Disc length: 2707 seconds
#
# Revision: 0
# Processed by: cddbd v1.5.2PL0 Copyright (c) Steve Scherf et al.
# Submitted via: ExactAudioCopyFreeDBPlugin 1.0
#
DISCID=cb0a910e
DTITLE=民歌合辑 - 国宝民歌(下)
DYEAR=2007
DGENRE=Country
TTITLE0=彭丽媛 - 沂蒙山小调 (山东)
TTITLE1=朱明瑛 - 回娘家 (河北)
TTITLE2=林静 - 弥渡山歌 (云南)
TTITLE3=叶茅  - 送情郎 (东北)
TTITLE4=王宁梅 - 拔根芦柴花 (江苏)
TTITLE5=俞淑琴 - 打连成 (内蒙) 
TTITLE6=叶茅 and 廖莎  - 采红菱 (安徽)
TTITLE7=叶茅 and 廖莎 - 原乡情浓 (台湾)
TTITLE8=于文华 - 摇篮曲 (东北)
TTITLE9=贠恩凤 - 赶牲灵 (陕北)
TTITLE10=贠恩凤 - 五哥放羊 (河曲二人台)
TTITLE11=李双江 - 在那遥远的地方 (新疆)
TTITLE12=郭颂 - 新货郎 (东北)
TTITLE13=廖莎 - 山青水秀太阳高 (广西)
EXTD=
EXTT0=
EXTT1=
EXTT2=
EXTT3=
EXTT4=
EXTT5=
EXTT6=
EXTT7=
EXTT8=
EXTT9=
EXTT10=
EXTT11=
EXTT12=
EXTT13=
PLAYORDER=
